<?xml version="1.0" encoding="iso-8859-1"?>
<!-- Uploaded to: SVG Repo, www.svgrepo.com, Generator: SVG Repo Mixer Tools -->
<!DOCTYPE svg PUBLIC "-//W3C//DTD SVG 1.1//EN" "http://www.w3.org/Graphics/SVG/1.1/DTD/svg11.dtd">
<svg fill="#000000" height="800px" width="800px" version="1.1" id="Capa_1" xmlns="http://www.w3.org/2000/svg" xmlns:xlink="http://www.w3.org/1999/xlink" 
	 viewBox="0 0 512 512" xml:space="preserve">
<g>
	<path d="M72,128h88c4.418,0,8-3.582,8-8s-3.582-8-8-8H72c-4.418,0-8,3.582-8,8S67.582,128,72,128z"/>
	<path d="M392,112H192c-4.418,0-8,3.582-8,8s3.582,8,8,8h200c4.418,0,8-3.582,8-8S396.418,112,392,112z"/>
	<path d="M72,80h320c4.418,0,8-3.582,8-8s-3.582-8-8-8H72c-4.418,0-8,3.582-8,8S67.582,80,72,80z"/>
	<path d="M72,176h320c4.418,0,8-3.582,8-8s-3.582-8-8-8H72c-4.418,0-8,3.582-8,8S67.582,176,72,176z"/>
	<path d="M56,240h352c28.163,0,51.537-20.897,55.43-48h21.256c6.494,0,12.296-3.877,14.782-9.877s1.124-12.845-3.468-17.437l-32-32
		V56c0-30.878-25.122-56-56-56H56C25.122,0,0,25.122,0,56v128C0,214.878,25.122,240,56,240z M16,56c0-22.056,17.944-40,40-40h352
		c22.056,0,40,17.944,40,40v80c0,2.122,0.843,4.156,2.343,5.657L484.687,176H456c-4.418,0-8,3.582-8,8c0,22.056-17.944,40-40,40H56
		c-22.056,0-40-17.944-40-40V56z"/>
	<path d="M440,384h-88c-4.418,0-8,3.582-8,8s3.582,8,8,8h88c4.418,0,8-3.582,8-8S444.418,384,440,384z"/>
	<path d="M120,400h200c4.418,0,8-3.582,8-8s-3.582-8-8-8H120c-4.418,0-8,3.582-8,8S115.582,400,120,400z"/>
	<path d="M440,336H120c-4.418,0-8,3.582-8,8s3.582,8,8,8h320c4.418,0,8-3.582,8-8S444.418,336,440,336z"/>
	<path d="M440,432H120c-4.418,0-8,3.582-8,8s3.582,8,8,8h320c4.418,0,8-3.582,8-8S444.418,432,440,432z"/>
	<path d="M456,272H104c-30.878,0-56,25.122-56,56v76.687l-32,32c-4.592,4.592-5.954,11.437-3.468,17.437S20.819,464,27.313,464
		H48.57c3.894,27.103,27.268,48,55.43,48h352c30.878,0,56-25.122,56-56V328C512,297.122,486.878,272,456,272z M496,456
		c0,22.056-17.944,40-40,40H104c-22.056,0-40-17.944-40-40c0-4.418-3.582-8-8-8l-28.682-0.005l34.338-34.338
		c1.5-1.5,2.343-3.535,2.343-5.657v-80c0-22.056,17.944-40,40-40h352c22.056,0,40,17.944,40,40V456z"/>
</g>
</svg>