<svg xmlns="http://www.w3.org/2000/svg" width="500" height="500" style="width:100%;height:100%;transform:translate3d(0,0,0);content-visibility:visible" viewBox="0 0 500 500"><defs><clipPath id="c"><path d="M0 0h500v500H0z"/></clipPath><clipPath id="f"><path d="M0 0h500v500H0z"/></clipPath><clipPath id="d"><path d="M0 0h500v500H0z"/></clipPath><path id="a" fill="#FFC638" d="M28.996-107.815h-61.121v212.266c0 1.858 1.401 3.364 3.129 3.364h57.992c1.728 0 3.129-1.506 3.129-3.364v-212.266h-3.129z" style="display:block" transform="translate(251.001 243.314) scale(.99999)"/><path id="b" fill="#FFC638" d="M28.996-107.815h-61.121v212.266c0 1.858 1.401 3.364 3.129 3.364h57.992c1.728 0 3.129-1.506 3.129-3.364v-212.266h-3.129z" style="display:block" transform="translate(251.002 243.314) scale(.99999)"/><mask id="g" mask-type="alpha"><use xmlns:ns1="http://www.w3.org/1999/xlink" ns1:href="#a"/></mask><mask id="e" mask-type="alpha"><use xmlns:ns2="http://www.w3.org/1999/xlink" ns2:href="#b"/></mask></defs><g clip-path="url(#c)"><g clip-path="url(#d)" opacity="0" style="display:block"><path fill="none" stroke="#121330" stroke-linecap="round" stroke-linejoin="round" stroke-width="1.44" d="M0 0" opacity="1" style="display:block" transform="translate(249 251)"/><g fill="#F8C8C0" opacity="1" style="display:block"><path d="M283.44 88.33h-64.876a3.5 3.5 0 0 0-3.5 3.5v42.812a3.5 3.5 0 0 0 3.5 3.5h64.875a3.5 3.5 0 0 0 3.5-3.5V91.831a3.5 3.5 0 0 0-3.5-3.5z" opacity="1"/><path d="M10.391-24.906H-6.891a3.5 3.5 0 0 0-3.5 3.5v42.812a3.5 3.5 0 0 0 3.5 3.5h17.282v-49.812z" opacity=".5" style="mix-blend-mode:multiply" transform="translate(225.455 113.237) scale(.99999)"/></g><path fill="#FFC638" d="M28.996-107.815h-61.121v212.266c0 1.858 1.401 3.364 3.129 3.364h57.992c1.728 0 3.129-1.506 3.129-3.364v-212.266h-3.129z" opacity="1" style="display:block" transform="translate(251.002 243.314) scale(.99999)"/><g fill="#FFC638" mask="url(#e)" style="display:block"><path d="M236.291 131.376v257.617H80.281V131.376h156.01z"/><path fill-opacity=".5" d="M18.967-128.81v257.62h-37.934v-257.62h37.934z" style="mix-blend-mode:multiply" transform="matrix(4.1127 0 0 .99999 158.286 260.185)"/></g><g opacity="1" style="display:block"><path fill="#EBE6EE" d="M278.139 352.148h-57.262v2.873c0 .496.14.992.417 1.437l18.341 31.765 22.333.586 18.868-32.35c.278-.446.417-.942.417-1.438v-2.873h-3.114z" opacity="1"/><path fill="#EBE6EE" d="M4.456-27.932h-16.612v2.873c0 .496.139.992.417 1.437L6.436 7.856l7.228.13-9.208-35.918z" opacity=".5" style="mix-blend-mode:multiply" transform="translate(233.033 380.08) scale(.99999)"/><path fill="#636D78" d="m264.229 384.914-26.44.077h.031v-.044a.054.054 0 0 0-.004-.022l10.697 19.65a2.875 2.875 0 0 0 4.977 0l10.724-19.66h-.003v-.001h.018z" opacity="1"/><path fill="#EBE6EE" d="m12.933 4.886-8.177.025h.031v-.044a.054.054 0 0 0-.004-.022l10.697 19.65a2.875 2.875 0 0 0 2.489 1.437L12.933 4.886z" opacity=".5" style="mix-blend-mode:multiply" transform="translate(233.033 380.08) scale(.99999)"/></g><path fill="none" stroke="#121330" stroke-linecap="round" stroke-linejoin="round" stroke-width="1.44" d="m-2.625 45.775 9.268-16.052h-18.536l9.268 16.052zm9.268-16.052h-18.536v-62.099H6.643v62.099zm0-62.099h-18.536v-12.232H6.643v12.232z" opacity="1" style="display:block" transform="matrix(3.5 0 0 3.5 260 248)"/><path fill="none" stroke="#636D78" stroke-linecap="round" stroke-linejoin="round" stroke-width="1.5" d="M-2.625 3.19v-27.851" opacity="1" style="display:block" transform="matrix(3.5 0 0 3.5 260 248)"/></g><g clip-path="url(#f)" style="display:block"><g fill="#F8C8C0" style="display:block"><path d="M283.439 88.33h-64.875a3.5 3.5 0 0 0-3.5 3.5v42.812a3.5 3.5 0 0 0 3.5 3.5h64.875a3.5 3.5 0 0 0 3.5-3.5V91.83a3.5 3.5 0 0 0-3.5-3.5z"/><path d="M10.391-24.906H-6.891a3.5 3.5 0 0 0-3.5 3.5v42.812a3.5 3.5 0 0 0 3.5 3.5h17.282v-49.812z" opacity=".5" style="mix-blend-mode:multiply" transform="translate(225.455 113.236) scale(.99999)"/></g><path fill="#FFC638" d="M28.996-107.815h-61.121v212.266c0 1.858 1.401 3.364 3.129 3.364h57.992c1.728 0 3.129-1.506 3.129-3.364v-212.266h-3.129z" style="display:block" transform="translate(251.001 243.314) scale(.99999)"/><g fill="#FFC638" mask="url(#g)" style="display:block"><path d="M236.29 131.376v257.617H80.279V131.376h156.013z"/><path fill-opacity=".5" d="M18.967-128.81v257.62h-37.934v-257.62h37.934z" style="mix-blend-mode:multiply" transform="matrix(4.11275 0 0 .99999 158.284 260.185)"/></g><g style="display:block"><path fill="#EBE6EE" d="M278.138 352.148h-57.261v2.873c0 .496.139.992.417 1.437l18.34 31.764 22.333.586 18.868-32.35c.278-.445.417-.941.417-1.437v-2.873h-3.114z"/><path fill="#EBE6EE" d="M4.456-27.932h-16.612v2.873c0 .496.139.992.417 1.437L6.436 7.856l7.228.13-9.208-35.918z" opacity=".5" style="mix-blend-mode:multiply" transform="translate(233.033 380.08) scale(.99999)"/><path fill="#636D78" d="m264.228 384.913-26.44.077h.032v-.044a.054.054 0 0 0-.004-.022l10.697 19.65a2.875 2.875 0 0 0 4.976 0l10.724-19.66h-.003.018z"/><path fill="#EBE6EE" d="m12.933 4.886-8.177.025h.031v-.044a.054.054 0 0 0-.004-.022l10.697 19.65a2.875 2.875 0 0 0 2.489 1.437L12.933 4.886z" opacity=".5" style="mix-blend-mode:multiply" transform="translate(233.033 380.08) scale(.99999)"/></g><path fill="none" stroke="#121330" stroke-linecap="round" stroke-linejoin="round" stroke-width="1.44" d="m-2.625 45.775 9.268-16.052h-18.536l9.268 16.052zm9.268-16.052h-18.536v-62.099H6.643v62.099zm0-62.099h-18.536v-12.232H6.643v12.232z" style="display:block" transform="matrix(3.5 0 0 3.5 260 248)"/><path fill="none" stroke="#636D78" stroke-linecap="round" stroke-linejoin="round" stroke-width="1.5" d="M-2.625 3.19v-27.851" style="display:block" transform="matrix(3.5 0 0 3.5 260 248)"/></g><g class="com" style="display:none"><path/><path/><path/><path/><path/><path/><path/><path/><path/><path/><path/><path/></g></g></svg>